# xmcd CD database file
#
# Track frame offsets:
#	150
#	20536
#	39103
#	61436
#	77747
#	93350
#	110312
#	130903
#	149572
#	166945
#	185582
#	206044
#	224375
#	242754
#	261147
#	278980
#	296131
#	311471
#	333671
#
# Disc length: 4706 seconds
#
# Revision: 0
# Processed by: cddbd v1.5.2PL0 Copyright (c) Steve Scherf et al.
# Submitted via: CDex 1.79
#
DISCID=21126013
DTITLE=Jenkins Mouskouri Shapplin Brightman - Divas
DYEAR=1900
DGENRE=New Age
TTITLE0=Spente le Stelle
TTITLE1=Cuor senza sangue
TTITLE2=La notte etterna
TTITLE3=La mer
TTITLE4=When it rains in America
TTITLE5=Dust in the wind
TTITLE6=Falta tu estrella
TTITLE7=Cuerpo sin alma
TTITLE8=Tu quieres volver
TTITLE9=Time to say goodbay
TTITLE10=Il mio cuore
TTITLE11=Deliver me
TTITLE12=Havanera
TTITLE13=Song for liberty
TTITLE14=Ava Maria
TTITLE15=Bring me to life
TTITLE16=La vie en rose
TTITLE17=No woman no cry
TTITLE18=Parla piu piano
EXTD=
EXTT0=
EXTT1=
EXTT2=
EXTT3=
EXTT4=
EXTT5=
EXTT6=
EXTT7=
EXTT8=
EXTT9=
EXTT10=
EXTT11=
EXTT12=
EXTT13=
EXTT14=
EXTT15=
EXTT16=
EXTT17=
EXTT18=
PLAYORDER=
